<svg width="710.667" height="710.667" viewBox="-79 -16 533 533.333" xmlns="http://www.w3.org/2000/svg" xmlns:xlink="http://www.w3.org/1999/xlink" overflow="hidden"><style>
.MsftOfcThm_Background1_Fill_v2 {
 fill:#FFFFFF; 
}
</style>
<path d="M315.809 33.9492 235.453 33.9492C226.348 13.3164 205.918 0 183.363 0 160.805 0 140.375 13.3164 131.27 33.9492L50.9102 33.9492C20.5977 33.9844-3.96484 58.5508-4 88.8633L-4 445.086C-3.96484 475.398 20.5977 499.965 50.9102 500L315.809 500C346.121 499.965 370.688 475.398 370.723 445.086L370.723 88.8633C370.688 58.5508 346.121 33.9844 315.809 33.9492ZM140.312 58.9492C146.18 58.9492 151.258 54.8672 152.52 49.1289 155.59 35.1523 168.562 25 183.363 25 198.164 25 211.133 35.1523 214.203 49.1289 215.461 54.8672 220.539 58.9492 226.414 58.9492L251.199 58.9492 251.199 69.918C251.18 86.4297 237.801 99.8086 221.289 99.8281L145.434 99.8281C128.918 99.8086 115.539 86.4297 115.52 69.918L115.52 58.9492ZM345.723 445.086C345.707 461.602 332.324 474.984 315.809 475L50.9102 475C34.3984 474.984 21.0195 461.602 21 445.086L21 88.8633C21.0195 72.3477 34.3984 58.9688 50.9102 58.9492L90.5195 58.9492 90.5195 69.918C90.5547 100.23 115.121 124.793 145.434 124.828L221.289 124.828C251.602 124.793 276.164 100.23 276.199 69.918L276.199 58.9492 315.809 58.9492C332.324 58.9688 345.703 72.3477 345.723 88.8633Z" class="MsftOfcThm_Background1_Fill_v2" fill="#FFFFFF"/><path d="M245.227 230.957 163.164 311.082 121.492 270.406C116.59 265.609 108.738 265.668 103.898 270.527 99.0625 275.391 99.043 283.242 103.859 288.125L104.027 288.289 154.426 337.5C159.285 342.242 167.039 342.242 171.895 337.5L262.688 248.852C267.598 244.023 267.676 236.137 262.871 231.211 258.059 226.285 250.176 226.176 245.227 230.965Z" class="MsftOfcThm_Background1_Fill_v2" fill="#FFFFFF"/></svg>